<?xml version="1.0" encoding="iso-8859-1"?>
<!-- Generator: Adobe Illustrator 19.0.0, SVG Export Plug-In . SVG Version: 6.00 Build 0)  -->
<svg version="1.1" id="Layer_1" xmlns="http://www.w3.org/2000/svg" xmlns:xlink="http://www.w3.org/1999/xlink" x="0px" y="0px"
	 viewBox="0 0 496 496" style="enable-background:new 0 0 496 496;" xml:space="preserve">
<g>
	<path style="fill:#F9BA48;" d="M496,400H352c-17.648,0-32-14.352-32-32s14.352-32,32-32h144V400z"/>
	<polygon style="fill:#F9BA48;" points="136,168 152,272 128,296 104,272 120,168 	"/>
	<circle style="fill:#F9BA48;" cx="360" cy="248" r="48"/>
</g>
<g>
	<path style="fill:#333333;" d="M184,144h-10.84C189.504,130.792,200,110.608,200,88V59.552C209.52,54,216,43.792,216,32
		c0-17.648-14.352-32-32-32H72C54.352,0,40,14.352,40,32c0,11.792,6.48,22,16,27.552V88c0,22.608,10.496,42.792,26.84,56H72
		c-39.704,0-72,32.296-72,72v80c0,26.472,21.528,48,48,48v152h160V344c26.472,0,48-21.528,48-48v-80
		C256,176.296,223.704,144,184,144z M92.688,160l14.76,14.76l-7.68,5.12L91.816,160H92.688z M115.312,160h25.376l-8,8h-9.376
		L115.312,160z M163.312,160h0.872l-7.952,19.872l-7.68-5.12L163.312,160z M72,16h112c8.824,0,16,7.176,16,16s-7.176,16-16,16H72
		c-8.824,0-16-7.176-16-16S63.176,16,72,16z M179.96,64c-6.136,9.752-16.912,16-28.944,16h-46.032c-12.024,0-22.8-6.248-28.936-16
		H179.96z M72,88v-4.52C80.92,91.28,92.456,96,104.984,96h46.032c12.536,0,24.072-4.72,32.984-12.52V88c0,30.872-25.128,56-56,56
		S72,118.872,72,88z M20.448,312H48v16C36.208,328,26,321.52,20.448,312z M120,360v88H64V328h128v120h-56v-88H120z M64,480v-16h56
		v16H64z M136,480v-16h56v16H136z M208,328v-16h27.552C230,321.52,219.792,328,208,328z M240,296h-32v-96h-16v112H64V200H48v96H16
		v-80c0-30.872,25.128-56,56-56h2.584l17.648,44.128L122.424,184h11.16l30.184,20.128L181.416,160H184c30.872,0,56,25.128,56,56V296
		z"/>
	<path style="fill:#333333;" d="M408.984,0c-18.392,0-34.344,12.464-38.808,30.304L349.76,112H336V88h-48c-17.648,0-32,14.352-32,32
		s14.352,32,32,32h38.112l12.128,6.064l-1.008,4.032C298.128,177.824,272,216.232,272,258.528v129.216
		c0,19.072,13.584,35.24,32,39.024V472c0,13.232,10.768,24,24,24h64c13.232,0,24-10.768,24-24v-40h80V176v-16V0H408.984z M320,136
		h-32c-8.824,0-16-7.176-16-16s7.176-16,16-16h32V136z M336,139.056V128h9.76l-3.544,14.16L336,139.056z M320,472v-43.144
		c5.32,0.544,10.656,1.008,16,1.408V480h-8C323.584,480,320,476.416,320,472z M400,472c0,4.416-3.584,8-8,8h-8v-8h-16v8h-16v-48.752
		c5.336,0.256,10.672,0.448,16,0.56V456h16v-24h16V472z M480,368h-96v16h96v32h-99.76c-23.728,0-47.688-1.496-71.216-4.432
		C297.04,410.072,288,399.832,288,387.752V258.528c0-36.488,22.944-69.592,57.096-82.4l0.352-0.128H480V368z M354.248,160
		l31.448-125.824C388.376,23.48,397.952,16,408.984,16H480v144H354.248z"/>
	<path style="fill:#333333;" d="M320,248c0,22.056,17.944,40,40,40s40-17.944,40-40s-17.944-40-40-40S320,225.944,320,248z M360,224
		c13.232,0,24,10.768,24,24s-10.768,24-24,24s-24-10.768-24-24S346.768,224,360,224z"/>
	<rect x="352" y="368" style="fill:#333333;" width="16" height="16"/>
</g>
<g>
</g>
<g>
</g>
<g>
</g>
<g>
</g>
<g>
</g>
<g>
</g>
<g>
</g>
<g>
</g>
<g>
</g>
<g>
</g>
<g>
</g>
<g>
</g>
<g>
</g>
<g>
</g>
<g>
</g>
</svg>
