<?xml version="1.0" encoding="UTF-8"?>
<svg width="505px" height="518px" viewBox="0 0 505 518" version="1.1" xmlns="http://www.w3.org/2000/svg" xmlns:xlink="http://www.w3.org/1999/xlink">
    <!-- Generator: Sketch 52.6 (67491) - http://www.bohemiancoding.com/sketch -->
    <title>desitination</title>
    <desc>Created with Sketch.</desc>
    <g id="Page-1" stroke="none" stroke-width="1" fill="none" fill-rule="evenodd">
        <g id="delivery" transform="translate(0.000000, 0.777778)">
            <path d="M41.9528889,353.891556 C128.153778,401.294222 162.799111,478.492444 204.328,501.333333 C245.871111,524.174222 346.237333,548.252444 451.311111,357.162667 C556.384889,166.072889 454.454222,73.5004444 408.758222,48.3697778 C194.827556,-69.248 -110.708444,269.952 41.9528889,353.891556 Z" id="Path" fill="#EFEFEF"></path>
            <path d="M409,171.548444 C409,222.051556 348.555556,273.777778 348.555556,273.777778 C348.555556,273.777778 288.111111,222.065778 288.111111,171.548444 C288.111111,137.671111 315.176,110.222222 348.555556,110.222222 C381.935111,110.222222 409,137.685333 409,171.548444 Z" id="Path" fill="#F5A623"></path>
            <path d="M153,358.229333 C153,386.773333 121,416 121,416 C121,416 89,386.773333 89,358.229333 C89,339.086222 103.321778,323.555556 121,323.555556 C138.678222,323.555556 153,339.072 153,358.229333 Z" id="Path" fill="#F3F3F1"></path>
            <path d="M320.111111,171.548444 C320.111111,143.331556 338.998222,119.822222 364.555556,112.668444 C359.421333,111.232 354.130667,110.222222 348.555556,110.222222 C315.176,110.222222 288.111111,137.685333 288.111111,171.548444 C288.111111,222.051556 348.555556,273.777778 348.555556,273.777778 C348.555556,273.777778 355.467556,267.818667 364.555556,258.104889 C346.649778,238.990222 320.111111,205.056 320.111111,171.548444 Z" id="Path" fill="#F39905"></path>
            <path d="M137,328.362667 C132.278222,325.390222 126.859556,323.555556 121,323.555556 C103.321778,323.555556 89,339.072 89,358.229333 C89,386.773333 121,416 121,416 C121,416 128.992889,408.689778 137,397.809778 C128.992889,386.944 121,372.494222 121,358.229333 C121,345.429333 127.471111,334.364444 137,328.362667 Z" id="Path" fill="#D5DBE1"></path>
            <g id="Group" transform="translate(320.111111, 0.000000)" fill="#A4AFC1">
                <path d="M29.0986667,366.222222 C17.3368889,366.222222 7.76533333,356.650667 7.76533333,344.888889 C7.76533333,333.127111 17.3368889,323.555556 29.0986667,323.555556 C40.8604444,323.555556 50.432,333.127111 50.432,344.888889 C50.432,356.650667 40.8746667,366.222222 29.0986667,366.222222 Z M29.0986667,337.777778 C25.1733333,337.777778 21.9875556,340.977778 21.9875556,344.888889 C21.9875556,348.8 25.1733333,352 29.0986667,352 C33.024,352 36.2097778,348.8 36.2097778,344.888889 C36.2097778,340.977778 33.024,337.777778 29.0986667,337.777778 Z" id="Shape" fill-rule="nonzero"></path>
                <polygon id="Path" transform="translate(112.989980, 28.195300) rotate(-43.136721) translate(-112.989980, -28.195300) " points="105.876182 13.9677023 120.103779 13.9677023 120.103779 42.4228968 105.876182 42.4228968"></polygon>
                <polygon id="Path" transform="translate(168.789547, 88.312277) rotate(-43.094898) translate(-168.789547, -88.312277) " points="161.680608 74.0944007 175.898485 74.0944007 175.898485 102.530154 161.680608 102.530154"></polygon>
                <polygon id="Path" transform="translate(108.432996, 86.231851) rotate(-43.094898) translate(-108.432996, -86.231851) " points="94.2151189 79.1229123 122.650872 79.1229123 122.650872 93.340789 94.2151189 93.340789"></polygon>
                <polygon id="Path" transform="translate(168.142194, 30.385152) rotate(-43.094898) translate(-168.142194, -30.385152) " points="153.924317 23.2762137 182.36007 23.2762137 182.36007 37.4940903 153.924317 37.4940903"></polygon>
            </g>
            <path d="M348.555556,284.444444 C346.080889,284.444444 343.620444,283.591111 341.629333,281.884444 C338.998222,279.637333 277.444444,226.346667 277.444444,171.548444 C277.444444,131.854222 309.344889,99.5555556 348.555556,99.5555556 C387.766222,99.5555556 419.666667,131.854222 419.666667,171.548444 C419.666667,226.346667 358.112889,279.637333 355.481778,281.884444 C353.490667,283.591111 351.030222,284.444444 348.555556,284.444444 Z M348.555556,120.888889 C321.106667,120.888889 298.777778,143.616 298.777778,171.548444 C298.777778,206.848 333.423111,244.465778 348.555556,259.214222 C363.688,244.465778 398.333333,206.848 398.333333,171.548444 C398.333333,143.616 376.004444,120.888889 348.555556,120.888889 Z" id="Shape" fill="#000000" fill-rule="nonzero"></path>
            <path d="M348.555556,199.111111 C332.868444,199.111111 320.111111,186.353778 320.111111,170.666667 C320.111111,154.979556 332.868444,142.222222 348.555556,142.222222 C364.242667,142.222222 377,154.979556 377,170.666667 C377,186.353778 364.242667,199.111111 348.555556,199.111111 Z M348.555556,163.555556 C344.630222,163.555556 341.444444,166.755556 341.444444,170.666667 C341.444444,174.577778 344.630222,177.777778 348.555556,177.777778 C352.480889,177.777778 355.666667,174.577778 355.666667,170.666667 C355.666667,166.755556 352.480889,163.555556 348.555556,163.555556 Z" id="Shape" fill="#000000" fill-rule="nonzero"></path>
            <path d="M121,426.666667 C118.425778,426.666667 115.851556,425.742222 113.803556,423.879111 C112.367111,422.556444 78.3333333,391.096889 78.3333333,358.229333 C78.3333333,333.226667 97.4764444,312.888889 121,312.888889 C144.523556,312.888889 163.666667,333.226667 163.666667,358.229333 C163.666667,391.111111 129.632889,422.556444 128.196444,423.879111 C126.148444,425.742222 123.574222,426.666667 121,426.666667 Z M121,334.222222 C109.238222,334.222222 99.6666667,344.988444 99.6666667,358.229333 C99.6666667,373.233778 111.769778,390.300444 120.985778,400.711111 C130.216,390.257778 142.333333,373.148444 142.333333,358.229333 C142.333333,344.988444 132.761778,334.222222 121,334.222222 Z" id="Shape" fill="#000000" fill-rule="nonzero"></path>
            <path d="M300.968,440.888889 L121,440.888889 L121,419.555556 L300.968,419.555556 C302.987556,419.555556 303.883556,418.318222 304.281778,417.28 C304.68,416.241778 304.850667,414.72 303.357333,413.383111 L208.765333,327.779556 C201.071111,320.839111 198.511111,310.087111 202.237333,300.401778 C205.977778,290.702222 215.094222,284.444444 225.476444,284.444444 L348.555556,284.444444 L348.555556,305.777778 L225.476444,305.777778 C223.456889,305.777778 222.560889,307.015111 222.162667,308.053333 C221.764444,309.091556 221.593778,310.613333 223.087111,311.950222 L317.679111,397.553778 C325.373333,404.494222 327.933333,415.246222 324.207111,424.931556 C320.466667,434.631111 311.350222,440.888889 300.968,440.888889 Z" id="Path" fill="#000000"></path>
        </g>
    </g>
</svg>